<svg width="289" height="54" viewBox="0 0 289 54" fill="none" xmlns="http://www.w3.org/2000/svg">
<ellipse cx="26.9797" cy="27" rx="26.9797" ry="27" fill="black"/>
<path d="M26.9797 9.55232C36.6115 9.55232 44.4477 17.3885 44.4477 27.0203C44.4477 36.6522 36.6115 44.4883 26.9797 44.4883C17.3478 44.4883 9.51167 36.6522 9.51167 27.0203C9.51167 17.3885 17.3478 9.55232 26.9797 9.55232ZM26.9797 6.05872C15.4036 6.05872 6.01807 15.4443 6.01807 27.0203C6.01807 38.5964 15.4036 47.9819 26.9797 47.9819C38.5557 47.9819 47.9413 38.5964 47.9413 27.0203C47.9413 15.4443 38.5557 6.05872 26.9797 6.05872ZM36.5993 30.4109C33.9581 32.4983 31.0549 33.7839 26.9814 33.7839C22.9044 33.7839 20.0012 32.4983 17.36 30.4109L16.4989 31.272C18.4675 34.2765 22.0886 37.5011 26.9814 37.5011C31.8725 37.5011 35.4918 34.2765 37.4605 31.272L36.5993 30.4109ZM20.8659 20.0331C19.4195 20.0331 18.2457 21.2052 18.2457 22.6533C18.2457 24.1014 19.4195 25.2735 20.8659 25.2735C22.3122 25.2735 23.4861 24.1014 23.4861 22.6533C23.4861 21.2052 22.3122 20.0331 20.8659 20.0331ZM33.0935 20.0331C31.6471 20.0331 30.4733 21.2052 30.4733 22.6533C30.4733 24.1014 31.6471 25.2735 33.0935 25.2735C34.5398 25.2735 35.7137 24.1014 35.7137 22.6533C35.7137 21.2052 34.5398 20.0331 33.0935 20.0331V20.0331Z" fill="#F1F1F1"/>
<path d="M80.653 40.927C80.3797 40.927 80.1747 40.763 80.038 40.435L79.464 39.041C78.8627 37.5923 78.0017 36.1573 76.881 34.736C75.7603 33.2873 74.6533 31.9617 73.56 30.759C72.9587 31.989 72.4257 33.096 71.961 34.08C71.4963 35.064 71.0727 35.9933 70.69 36.868C70.3073 37.7153 69.8973 38.6037 69.46 39.533C69.3507 39.8063 69.1593 39.943 68.886 39.943C68.4213 39.943 68.189 39.7517 68.189 39.369C68.189 39.205 68.2437 39 68.353 38.754C68.4897 38.4807 68.6127 38.2073 68.722 37.934C69.4327 36.212 70.3483 34.162 71.469 31.784C72.617 29.406 73.9153 26.8093 75.364 23.994C78.1247 18.6093 80.3387 14.7553 82.006 12.432C82.3887 11.8853 82.7577 11.3933 83.113 10.956C83.4957 10.5187 83.8237 10.3 84.097 10.3C84.589 10.3 84.835 10.5597 84.835 11.079C84.835 11.7897 83.7963 13.6757 81.719 16.737C81.555 16.983 81.268 17.393 80.858 17.967C80.448 18.541 80.0107 19.1697 79.546 19.853C79.0813 20.509 78.644 21.124 78.234 21.698C77.8513 22.2447 77.5917 22.6273 77.455 22.846L74.503 28.709C81.1177 24.855 84.671 22.928 85.163 22.928C85.6003 22.928 85.819 23.174 85.819 23.666C85.819 23.9667 85.655 24.1853 85.327 24.322C84.1243 24.896 83.1677 25.3607 82.457 25.716C81.7737 26.0713 81.0767 26.4403 80.366 26.823C79.7647 27.2057 78.9857 27.6703 78.029 28.217C77.0997 28.7637 75.9927 29.3923 74.708 30.103C75.364 30.8137 76.0747 31.6473 76.84 32.604C77.6053 33.5333 78.316 34.5037 78.972 35.515C79.6553 36.499 80.2157 37.4147 80.653 38.262C81.0903 39.1093 81.309 39.7927 81.309 40.312C81.309 40.722 81.0903 40.927 80.653 40.927ZM85.1278 39.41C83.5424 39.41 82.7498 38.6583 82.7498 37.155C82.7498 36.171 82.9821 35.1187 83.4468 33.998C83.9388 32.85 84.5948 31.743 85.4148 30.677C86.2348 29.5837 87.1504 28.5997 88.1618 27.725C89.1731 26.823 90.2118 26.1123 91.2778 25.593C92.3438 25.0463 93.3688 24.773 94.3528 24.773C96.1021 24.773 96.9768 25.634 96.9768 27.356C96.9768 28.4767 96.7034 29.037 96.1568 29.037C95.6648 29.037 95.4188 28.8047 95.4188 28.34C95.4188 28.1487 95.4598 27.9573 95.5418 27.766C95.6511 27.5473 95.7058 27.315 95.7058 27.069C95.7058 26.3037 95.1864 25.921 94.1478 25.921C92.4804 25.921 90.3894 27.192 87.8748 29.734C87.2734 30.3627 86.6858 31.1007 86.1118 31.948C85.5378 32.7953 85.0594 33.6563 84.6768 34.531C84.3214 35.3783 84.1438 36.1847 84.1438 36.95C84.1438 37.688 84.5538 38.057 85.3738 38.057C86.0844 38.057 86.8361 37.8383 87.6288 37.401C88.4488 36.9637 89.1594 36.5127 89.7608 36.048C90.9634 35.146 92.1934 33.916 93.4508 32.358C93.6421 32.1393 93.8881 31.8523 94.1888 31.497C94.4894 31.1417 94.8311 30.7453 95.2138 30.308C95.3504 30.1713 95.5144 30.103 95.7058 30.103C96.1431 30.103 96.3618 30.3217 96.3618 30.759L94.8038 33.096C93.7651 34.6267 93.2458 35.884 93.2458 36.868C93.2458 37.5787 93.5874 37.934 94.2708 37.934C94.8448 37.934 95.4734 37.7837 96.1568 37.483C96.8401 37.1823 97.4004 36.8817 97.8378 36.581C98.7124 36.007 99.6281 35.2963 100.585 34.449C101.541 33.5743 102.457 32.6997 103.332 31.825C103.441 31.7157 103.605 31.661 103.824 31.661C104.234 31.661 104.439 31.825 104.439 32.153C104.439 32.4537 104.247 32.7953 103.865 33.178C102.771 34.2713 101.787 35.2143 100.913 36.007C100.038 36.7723 99.2044 37.401 98.4118 37.893C97.8924 38.1937 97.2501 38.508 96.4848 38.836C95.7194 39.164 94.8448 39.328 93.8608 39.328C92.5214 39.328 91.8518 38.6173 91.8518 37.196C91.8518 36.6493 91.9201 36.1983 92.0568 35.843C89.5694 38.221 87.2598 39.41 85.1278 39.41ZM99.3179 40.025C98.8806 40.025 98.6619 39.8473 98.6619 39.492C98.6619 39.328 98.7029 39.164 98.7849 39C98.8943 38.836 98.9763 38.6993 99.0309 38.59L102.762 31.046C104.347 27.8207 105.14 26.0303 105.14 25.675C105.14 25.2923 105.331 25.101 105.714 25.101C106.233 25.101 106.493 25.3607 106.493 25.88C106.493 26.1533 106.37 26.5907 106.124 27.192C105.878 27.7933 105.564 28.4903 105.181 29.283C104.525 30.7043 103.978 31.7977 103.541 32.563C104.361 31.6063 105.195 30.7043 106.042 29.857C106.889 29.0097 107.75 28.2033 108.625 27.438C111.222 25.1693 113.217 24.035 114.611 24.035C115.568 24.035 116.046 24.486 116.046 25.388C116.046 26.2627 115.759 26.7 115.185 26.7C114.912 26.7 114.707 26.4677 114.57 26.003C114.488 25.675 114.297 25.511 113.996 25.511C113.531 25.511 112.629 26.0167 111.29 27.028C109.814 28.1213 108.324 29.4197 106.821 30.923C105.345 32.4263 103.773 34.3397 102.106 36.663L100.056 39.533C99.9466 39.6697 99.8373 39.779 99.7279 39.861C99.6459 39.9703 99.5093 40.025 99.3179 40.025ZM114.459 39.41C112.873 39.41 112.081 38.6583 112.081 37.155C112.081 36.171 112.313 35.1187 112.778 33.998C113.27 32.85 113.926 31.743 114.746 30.677C115.566 29.5837 116.481 28.5997 117.493 27.725C118.504 26.823 119.543 26.1123 120.609 25.593C121.675 25.0463 122.7 24.773 123.684 24.773C125.433 24.773 126.308 25.634 126.308 27.356C126.308 28.4767 126.034 29.037 125.488 29.037C124.996 29.037 124.75 28.8047 124.75 28.34C124.75 28.1487 124.791 27.9573 124.873 27.766C124.982 27.5473 125.037 27.315 125.037 27.069C125.037 26.3037 124.517 25.921 123.479 25.921C121.811 25.921 119.72 27.192 117.206 29.734C116.604 30.3627 116.017 31.1007 115.443 31.948C114.869 32.7953 114.39 33.6563 114.008 34.531C113.652 35.3783 113.475 36.1847 113.475 36.95C113.475 37.688 113.885 38.057 114.705 38.057C115.415 38.057 116.167 37.8383 116.96 37.401C117.78 36.9637 118.49 36.5127 119.092 36.048C120.294 35.146 121.524 33.916 122.782 32.358C122.973 32.1393 123.219 31.8523 123.52 31.497C123.82 31.1417 124.162 30.7453 124.545 30.308C124.681 30.1713 124.845 30.103 125.037 30.103C125.474 30.103 125.693 30.3217 125.693 30.759L124.135 33.096C123.096 34.6267 122.577 35.884 122.577 36.868C122.577 37.5787 122.918 37.934 123.602 37.934C124.176 37.934 124.804 37.7837 125.488 37.483C126.171 37.1823 126.731 36.8817 127.169 36.581C128.043 36.007 128.959 35.2963 129.916 34.449C130.872 33.5743 131.788 32.6997 132.663 31.825C132.772 31.7157 132.936 31.661 133.155 31.661C133.565 31.661 133.77 31.825 133.77 32.153C133.77 32.4537 133.578 32.7953 133.196 33.178C132.102 34.2713 131.118 35.2143 130.244 36.007C129.369 36.7723 128.535 37.401 127.743 37.893C127.223 38.1937 126.581 38.508 125.816 38.836C125.05 39.164 124.176 39.328 123.192 39.328C121.852 39.328 121.183 38.6173 121.183 37.196C121.183 36.6493 121.251 36.1983 121.388 35.843C118.9 38.221 116.591 39.41 114.459 39.41ZM128.649 40.025C128.212 40.025 127.993 39.8473 127.993 39.492C127.993 39.3553 128.048 39.1913 128.157 39C128.266 38.7813 128.362 38.6037 128.444 38.467L132.134 31.046C133.719 27.8207 134.512 26.0303 134.512 25.675C134.512 25.2923 134.703 25.101 135.086 25.101C135.605 25.101 135.865 25.3743 135.865 25.921C135.865 26.1123 135.742 26.5223 135.496 27.151C135.25 27.7797 134.936 28.4903 134.553 29.283C133.897 30.7043 133.35 31.7977 132.913 32.563C133.733 31.6063 134.567 30.7043 135.414 29.857C136.261 29.0097 137.122 28.2033 137.997 27.438C140.594 25.1693 142.589 24.035 143.983 24.035C144.94 24.035 145.418 24.486 145.418 25.388C145.418 26.208 144.721 28.053 143.327 30.923C141.933 33.8203 141.236 35.6517 141.236 36.417C141.236 36.7723 141.359 36.95 141.605 36.95C141.687 36.95 141.81 36.9227 141.974 36.868C142.165 36.786 142.357 36.745 142.548 36.745C143.013 36.745 143.245 36.9637 143.245 37.401C143.245 37.9477 142.657 38.221 141.482 38.221C140.935 38.221 140.539 38.098 140.293 37.852C140.047 37.5787 139.924 37.2233 139.924 36.786C139.924 35.474 140.594 33.4787 141.933 30.8C143.272 28.1487 143.942 26.5497 143.942 26.003C143.942 25.675 143.819 25.511 143.573 25.511C142.972 25.511 142.001 26.0167 140.662 27.028C139.213 28.1213 137.765 29.3787 136.316 30.8C134.867 32.2213 133.487 33.8477 132.175 35.679L129.305 39.656C129.141 39.902 128.922 40.025 128.649 40.025ZM153.965 22.846C153.5 22.846 153.268 22.6137 153.268 22.149C153.268 22.0123 153.364 21.7663 153.555 21.411C153.746 21.0283 153.965 20.6457 154.211 20.263C154.457 19.8803 154.648 19.6207 154.785 19.484C155.25 18.9647 155.605 18.6367 155.851 18.5C156.124 18.3633 156.37 18.295 156.589 18.295C157.163 18.295 157.45 18.5547 157.45 19.074C157.45 19.2653 157.327 19.4977 157.081 19.771C156.862 20.017 156.603 20.2493 156.302 20.468C155.865 20.7413 155.591 20.96 155.482 21.124L154.58 22.395C154.553 22.5043 154.484 22.6137 154.375 22.723C154.293 22.805 154.156 22.846 153.965 22.846ZM146.995 39.451C146.23 39.451 145.669 39.3007 145.314 39C144.986 38.6993 144.822 38.2483 144.822 37.647C144.822 37.073 145 36.294 145.355 35.31C145.71 34.2987 146.161 33.219 146.708 32.071C147.282 30.923 147.883 29.8297 148.512 28.791C149.141 27.7523 149.742 26.905 150.316 26.249C150.917 25.5657 151.396 25.224 151.751 25.224C152.243 25.224 152.489 25.4427 152.489 25.88C152.489 26.1533 152.257 26.6727 151.792 27.438C151.327 28.2033 150.822 28.996 150.275 29.816C150.056 30.1167 149.756 30.5267 149.373 31.046C148.99 31.5653 148.621 32.0573 148.266 32.522C147.911 32.9593 147.678 33.26 147.569 33.424C147.296 33.834 147.009 34.5037 146.708 35.433C146.38 36.3623 146.216 37.073 146.216 37.565C146.216 37.7837 146.257 37.9477 146.339 38.057C146.448 38.1663 146.681 38.221 147.036 38.221C147.719 38.221 148.485 38.0023 149.332 37.565C150.179 37.1277 151.04 36.581 151.915 35.925C152.79 35.2417 153.61 34.5447 154.375 33.834C155.168 33.1233 155.837 32.5083 156.384 31.989C156.493 31.8797 156.657 31.825 156.876 31.825C157.286 31.825 157.491 31.989 157.491 32.317C157.491 32.6177 157.3 32.9593 156.917 33.342C156.179 34.08 155.496 34.736 154.867 35.31C154.238 35.884 153.637 36.3897 153.063 36.827C152.161 37.483 151.163 38.0843 150.07 38.631C148.977 39.1777 147.952 39.451 146.995 39.451ZM165.123 40.927C164.849 40.927 164.644 40.763 164.508 40.435L163.934 39.041C163.332 37.5923 162.471 36.1573 161.351 34.736C160.23 33.2873 159.123 31.9617 158.03 30.759C157.428 31.989 156.895 33.096 156.431 34.08C155.966 35.064 155.542 35.9933 155.16 36.868C154.777 37.7153 154.367 38.6037 153.93 39.533C153.82 39.8063 153.629 39.943 153.356 39.943C152.891 39.943 152.659 39.7517 152.659 39.369C152.659 39.205 152.713 39 152.823 38.754C152.959 38.4807 153.082 38.2073 153.192 37.934C153.902 36.212 154.818 34.162 155.939 31.784C157.087 29.406 158.385 26.8093 159.834 23.994C162.594 18.6093 164.808 14.7553 166.476 12.432C166.858 11.8853 167.227 11.3933 167.583 10.956C167.965 10.5187 168.293 10.3 168.567 10.3C169.059 10.3 169.305 10.5597 169.305 11.079C169.305 11.7897 168.266 13.6757 166.189 16.737C166.025 16.983 165.738 17.393 165.328 17.967C164.918 18.541 164.48 19.1697 164.016 19.853C163.551 20.509 163.114 21.124 162.704 21.698C162.321 22.2447 162.061 22.6273 161.925 22.846L158.973 28.709C165.587 24.855 169.141 22.928 169.633 22.928C170.07 22.928 170.289 23.174 170.289 23.666C170.289 23.9667 170.125 24.1853 169.797 24.322C168.594 24.896 167.637 25.3607 166.927 25.716C166.243 26.0713 165.546 26.4403 164.836 26.823C164.234 27.2057 163.455 27.6703 162.499 28.217C161.569 28.7637 160.462 29.3923 159.178 30.103C159.834 30.8137 160.544 31.6473 161.31 32.604C162.075 33.5333 162.786 34.5037 163.442 35.515C164.125 36.499 164.685 37.4147 165.123 38.262C165.56 39.1093 165.779 39.7927 165.779 40.312C165.779 40.722 165.56 40.927 165.123 40.927ZM169.794 38.795C167.58 38.795 166.473 37.5513 166.473 35.064C166.473 33.916 166.746 32.7133 167.293 31.456C167.84 30.1987 168.564 29.037 169.466 27.971C170.368 26.8777 171.366 25.9893 172.459 25.306C173.58 24.6227 174.714 24.281 175.862 24.281C176.873 24.281 177.611 24.6637 178.076 25.429C178.541 26.1943 178.773 27.0417 178.773 27.971C178.773 29.201 178.527 30.4583 178.035 31.743C177.543 33.0003 176.873 34.162 176.026 35.228C175.179 36.294 174.222 37.155 173.156 37.811C172.09 38.467 170.969 38.795 169.794 38.795ZM169.753 37.483C169.917 37.483 170.013 37.4693 170.04 37.442C171.106 37.3053 172.09 36.9227 172.992 36.294C173.894 35.6653 174.673 34.8863 175.329 33.957C176.012 33.0003 176.532 31.9753 176.887 30.882C177.242 29.7887 177.42 28.709 177.42 27.643C177.42 27.0143 177.242 26.5223 176.887 26.167C176.532 25.8117 176.081 25.634 175.534 25.634C174.741 25.634 173.894 25.962 172.992 26.618C172.117 27.274 171.284 28.1077 170.491 29.119C169.726 30.1303 169.097 31.1963 168.605 32.317C168.113 33.4103 167.867 34.3943 167.867 35.269C167.867 36.745 168.496 37.483 169.753 37.483ZM183.365 40.107C182.108 40.107 181.138 39.7243 180.454 38.959C179.798 38.1663 179.47 37.1277 179.47 35.843C179.47 34.9137 179.634 33.793 179.962 32.481C180.536 30.267 181.507 27.6977 182.873 24.773C183.939 22.559 185.087 20.386 186.317 18.254C187.547 16.0947 188.9 13.9763 190.376 11.899C192.727 8.56433 194.367 6.897 195.296 6.897C195.898 6.897 196.198 7.061 196.198 7.389C196.198 7.85367 195.433 9.01533 193.902 10.874L191.032 14.359C188.545 17.3657 186.509 20.4407 184.923 23.584C183.365 26.7273 182.149 29.8707 181.274 33.014C181.028 33.916 180.905 34.7633 180.905 35.556C180.905 37.6333 181.753 38.672 183.447 38.672C184.049 38.672 184.664 38.4943 185.292 38.139C185.921 37.811 186.263 37.647 186.317 37.647C186.645 37.647 186.809 37.8793 186.809 38.344C186.809 38.754 186.659 39.0683 186.358 39.287C185.429 39.8337 184.431 40.107 183.365 40.107ZM189.799 39.41C188.214 39.41 187.421 38.6583 187.421 37.155C187.421 36.171 187.654 35.1187 188.118 33.998C188.61 32.85 189.266 31.743 190.086 30.677C190.906 29.5837 191.822 28.5997 192.833 27.725C193.845 26.823 194.883 26.1123 195.949 25.593C197.015 25.0463 198.04 24.773 199.024 24.773C200.774 24.773 201.648 25.634 201.648 27.356C201.648 28.4767 201.375 29.037 200.828 29.037C200.336 29.037 200.09 28.8047 200.09 28.34C200.09 28.1487 200.131 27.9573 200.213 27.766C200.323 27.5473 200.377 27.315 200.377 27.069C200.377 26.3037 199.858 25.921 198.819 25.921C197.152 25.921 195.061 27.192 192.546 29.734C191.945 30.3627 191.357 31.1007 190.783 31.948C190.209 32.7953 189.731 33.6563 189.348 34.531C188.993 35.3783 188.815 36.1847 188.815 36.95C188.815 37.688 189.225 38.057 190.045 38.057C190.756 38.057 191.508 37.8383 192.3 37.401C193.12 36.9637 193.831 36.5127 194.432 36.048C195.635 35.146 196.865 33.916 198.122 32.358C198.314 32.1393 198.56 31.8523 198.86 31.497C199.161 31.1417 199.503 30.7453 199.885 30.308C200.022 30.1713 200.186 30.103 200.377 30.103C200.815 30.103 201.033 30.3217 201.033 30.759L199.475 33.096C198.437 34.6267 197.917 35.884 197.917 36.868C197.917 37.5787 198.259 37.934 198.942 37.934C199.516 37.934 200.145 37.7837 200.828 37.483C201.512 37.1823 202.072 36.8817 202.509 36.581C203.384 36.007 204.3 35.2963 205.256 34.449C206.213 33.5743 207.129 32.6997 208.003 31.825C208.113 31.7157 208.277 31.661 208.495 31.661C208.905 31.661 209.11 31.825 209.11 32.153C209.11 32.4537 208.919 32.7953 208.536 33.178C207.443 34.2713 206.459 35.2143 205.584 36.007C204.71 36.7723 203.876 37.401 203.083 37.893C202.564 38.1937 201.922 38.508 201.156 38.836C200.391 39.164 199.516 39.328 198.532 39.328C197.193 39.328 196.523 38.6173 196.523 37.196C196.523 36.6493 196.592 36.1983 196.728 35.843C194.241 38.221 191.931 39.41 189.799 39.41ZM206.245 40.353C204.714 40.353 203.949 39.8473 203.949 38.836C203.949 38.2073 204.167 37.5787 204.605 36.95C205.069 36.3213 205.616 35.7473 206.245 35.228C206.873 34.7087 207.461 34.3123 208.008 34.039C208.172 33.957 208.39 33.875 208.664 33.793C208.964 33.711 209.21 33.67 209.402 33.67C209.62 33.67 209.73 33.752 209.73 33.916C209.73 34.0527 209.579 34.203 209.279 34.367C208.021 34.9683 207.037 35.6927 206.327 36.54C205.643 37.36 205.302 38.0297 205.302 38.549C205.302 39.041 205.725 39.287 206.573 39.287C207.283 39.287 208.049 39.1093 208.869 38.754C209.716 38.3987 210.509 37.934 211.247 37.36C212.012 36.786 212.641 36.171 213.133 35.515C213.625 34.859 213.871 34.2303 213.871 33.629C213.871 33.219 213.734 32.85 213.461 32.522C213.215 32.194 212.805 31.948 212.231 31.784L209.525 30.964C208.841 30.7453 208.349 30.4583 208.049 30.103C207.748 29.7477 207.598 29.3513 207.598 28.914C207.598 28.094 207.898 27.356 208.5 26.7C209.128 26.044 209.907 25.5247 210.837 25.142C211.766 24.7593 212.668 24.568 213.543 24.568C214.417 24.568 215.183 24.7867 215.839 25.224C216.495 25.634 216.823 26.1943 216.823 26.905C216.823 27.315 216.7 27.6977 216.454 28.053C216.235 28.4083 215.975 28.586 215.675 28.586C215.21 28.586 214.978 28.3947 214.978 28.012C214.978 27.8753 215.046 27.7113 215.183 27.52C215.347 27.3013 215.429 27.0963 215.429 26.905C215.429 26.085 214.8 25.675 213.543 25.675C212.859 25.675 212.176 25.8253 211.493 26.126C210.837 26.3993 210.29 26.7683 209.853 27.233C209.415 27.6977 209.197 28.2033 209.197 28.75C209.197 29.2967 209.743 29.734 210.837 30.062L213.461 30.882C214.253 31.128 214.8 31.4697 215.101 31.907C215.401 32.317 215.552 32.7817 215.552 33.301C215.552 34.531 214.8 35.802 213.297 37.114C210.864 39.2733 208.513 40.353 206.245 40.353ZM217.584 39C216.846 39 216.477 38.6583 216.477 37.975C216.477 37.237 216.819 36.868 217.502 36.868C218.24 36.868 218.609 37.2097 218.609 37.893C218.609 38.631 218.267 39 217.584 39ZM236.417 39.82C235.734 39.82 235.201 39.5467 234.818 39C234.435 38.4533 234.244 37.77 234.244 36.95C234.244 36.7313 234.258 36.4033 234.285 35.966C234.312 35.5013 234.34 35.023 234.367 34.531C234.422 34.0117 234.463 33.5607 234.49 33.178C234.517 32.768 234.545 32.522 234.572 32.44L234.531 32.276C234.285 32.6313 233.943 33.096 233.506 33.67C233.096 34.244 232.659 34.8317 232.194 35.433C231.757 36.007 231.36 36.5127 231.005 36.95C230.431 37.6333 229.802 38.1663 229.119 38.549C228.436 38.9317 227.807 39.123 227.233 39.123C226.55 39.123 225.976 38.7813 225.511 38.098C225.046 37.3873 224.814 36.376 224.814 35.064C224.814 33.8067 225.019 32.399 225.429 30.841L224.158 32.317C223.967 32.5083 223.803 32.6723 223.666 32.809C223.529 32.9183 223.393 32.973 223.256 32.973C223.119 32.973 222.983 32.9183 222.846 32.809C222.737 32.6723 222.682 32.5083 222.682 32.317C222.682 32.1257 222.75 31.9617 222.887 31.825C223.16 31.5243 223.475 31.1417 223.83 30.677C224.213 30.185 224.65 29.6247 225.142 28.996C225.552 28.422 226.235 27.356 227.192 25.798C227.356 25.5247 227.575 25.388 227.848 25.388C228.313 25.388 228.545 25.6067 228.545 26.044C228.545 26.1807 228.477 26.372 228.34 26.618C228.203 26.8367 228.012 27.2603 227.766 27.889C227.274 29.1737 226.891 30.4447 226.618 31.702C226.345 32.932 226.208 34.1483 226.208 35.351C226.208 36.3897 226.276 37.073 226.413 37.401C226.55 37.7017 226.755 37.852 227.028 37.852C227.903 37.852 228.955 37.196 230.185 35.884C230.54 35.5013 231.073 34.859 231.784 33.957C232.495 33.0277 233.233 31.948 233.998 30.718C234.763 29.4607 235.365 28.176 235.802 26.864L236.417 25.06C236.499 24.814 236.677 24.691 236.95 24.691C237.442 24.691 237.688 24.9233 237.688 25.388C237.688 25.552 237.538 25.9893 237.237 26.7C236.936 27.3833 236.636 28.463 236.335 29.939C236.144 30.8683 235.966 31.8523 235.802 32.891C235.665 33.9297 235.597 34.9273 235.597 35.884C235.597 37.7153 235.898 38.631 236.499 38.631C236.991 38.631 237.62 38.3713 238.385 37.852C239.15 37.3327 239.957 36.6767 240.804 35.884C241.651 35.0913 242.417 34.2713 243.1 33.424C243.729 32.686 244.371 31.8387 245.027 30.882C245.683 29.9253 246.23 28.9687 246.667 28.012C247.132 27.028 247.364 26.1807 247.364 25.47C247.364 24.7593 247.173 24.2947 246.79 24.076C246.735 24.0487 246.366 23.994 245.683 23.912C245.3 23.8573 245.109 23.6387 245.109 23.256C245.109 22.8187 245.328 22.6 245.765 22.6C246.64 22.6 247.337 22.846 247.856 23.338C248.403 23.83 248.676 24.4997 248.676 25.347C248.676 27.643 247.145 30.6087 244.084 34.244C240.968 37.9613 238.412 39.82 236.417 39.82ZM250.78 38.795C248.566 38.795 247.459 37.5513 247.459 35.064C247.459 33.916 247.733 32.7133 248.279 31.456C248.826 30.1987 249.55 29.037 250.452 27.971C251.354 26.8777 252.352 25.9893 253.445 25.306C254.566 24.6227 255.7 24.281 256.848 24.281C257.86 24.281 258.598 24.6637 259.062 25.429C259.527 26.1943 259.759 27.0417 259.759 27.971C259.759 29.201 259.513 30.4583 259.021 31.743C258.529 33.0003 257.86 34.162 257.012 35.228C256.165 36.294 255.208 37.155 254.142 37.811C253.076 38.467 251.956 38.795 250.78 38.795ZM250.739 37.483C250.903 37.483 250.999 37.4693 251.026 37.442C252.092 37.3053 253.076 36.9227 253.978 36.294C254.88 35.6653 255.659 34.8863 256.315 33.957C256.999 33.0003 257.518 31.9753 257.873 30.882C258.229 29.7887 258.406 28.709 258.406 27.643C258.406 27.0143 258.229 26.5223 257.873 26.167C257.518 25.8117 257.067 25.634 256.52 25.634C255.728 25.634 254.88 25.962 253.978 26.618C253.104 27.274 252.27 28.1077 251.477 29.119C250.712 30.1303 250.083 31.1963 249.591 32.317C249.099 33.4103 248.853 34.3943 248.853 35.269C248.853 36.745 249.482 37.483 250.739 37.483ZM258.448 40.025C258.01 40.025 257.792 39.8473 257.792 39.492C257.792 39.328 257.833 39.164 257.915 39C258.024 38.836 258.106 38.6993 258.161 38.59L261.892 31.046C263.477 27.8207 264.27 26.0303 264.27 25.675C264.27 25.2923 264.461 25.101 264.844 25.101C265.363 25.101 265.623 25.3607 265.623 25.88C265.623 26.1533 265.5 26.5907 265.254 27.192C265.008 27.7933 264.693 28.4903 264.311 29.283C263.655 30.7043 263.108 31.7977 262.671 32.563C263.491 31.6063 264.324 30.7043 265.172 29.857C266.019 29.0097 266.88 28.2033 267.755 27.438C270.351 25.1693 272.347 24.035 273.741 24.035C274.697 24.035 275.176 24.486 275.176 25.388C275.176 26.2627 274.889 26.7 274.315 26.7C274.041 26.7 273.836 26.4677 273.7 26.003C273.618 25.675 273.426 25.511 273.126 25.511C272.661 25.511 271.759 26.0167 270.42 27.028C268.944 28.1213 267.454 29.4197 265.951 30.923C264.475 32.4263 262.903 34.3397 261.236 36.663L259.186 39.533C259.076 39.6697 258.967 39.779 258.858 39.861C258.776 39.9703 258.639 40.025 258.448 40.025ZM283.018 40.927C282.745 40.927 282.54 40.763 282.403 40.435L281.829 39.041C281.228 37.5923 280.367 36.1573 279.246 34.736C278.126 33.2873 277.019 31.9617 275.925 30.759C275.324 31.989 274.791 33.096 274.326 34.08C273.862 35.064 273.438 35.9933 273.055 36.868C272.673 37.7153 272.263 38.6037 271.825 39.533C271.716 39.8063 271.525 39.943 271.251 39.943C270.787 39.943 270.554 39.7517 270.554 39.369C270.554 39.205 270.609 39 270.718 38.754C270.855 38.4807 270.978 38.2073 271.087 37.934C271.798 36.212 272.714 34.162 273.834 31.784C274.982 29.406 276.281 26.8093 277.729 23.994C280.49 18.6093 282.704 14.7553 284.371 12.432C284.754 11.8853 285.123 11.3933 285.478 10.956C285.861 10.5187 286.189 10.3 286.462 10.3C286.954 10.3 287.2 10.5597 287.2 11.079C287.2 11.7897 286.162 13.6757 284.084 16.737C283.92 16.983 283.633 17.393 283.223 17.967C282.813 18.541 282.376 19.1697 281.911 19.853C281.447 20.509 281.009 21.124 280.599 21.698C280.217 22.2447 279.957 22.6273 279.82 22.846L276.868 28.709C283.483 24.855 287.036 22.928 287.528 22.928C287.966 22.928 288.184 23.174 288.184 23.666C288.184 23.9667 288.02 24.1853 287.692 24.322C286.49 24.896 285.533 25.3607 284.822 25.716C284.139 26.0713 283.442 26.4403 282.731 26.823C282.13 27.2057 281.351 27.6703 280.394 28.217C279.465 28.7637 278.358 29.3923 277.073 30.103C277.729 30.8137 278.44 31.6473 279.205 32.604C279.971 33.5333 280.681 34.5037 281.337 35.515C282.021 36.499 282.581 37.4147 283.018 38.262C283.456 39.1093 283.674 39.7927 283.674 40.312C283.674 40.722 283.456 40.927 283.018 40.927Z" fill="white"/>
</svg>
